<?xml version="1.0" encoding="UTF-8"?>
<svg width="160px" height="160px" viewBox="0 0 160 160" version="1.1" xmlns="http://www.w3.org/2000/svg" xmlns:xlink="http://www.w3.org/1999/xlink">
    <!-- Generator: Sketch 51.2 (57519) - http://www.bohemiancoding.com/sketch -->
    <title>06-AGUA-LIMPIA-Y-SANEAMIENTO</title>
    <desc>Created with Sketch.</desc>
    <defs></defs>
    <g id="Design" stroke="none" stroke-width="1" fill="none" fill-rule="evenodd">
        <g id="Front-V1.0" transform="translate(-1095.000000, -1255.000000)">
            <g id="ODS" transform="translate(145.000000, 1255.000000)">
                <g id="06-AGUA-LIMPIA-Y-SANEAMIENTO" transform="translate(950.000000, 0.000000)">
                    <rect id="Rectangle-16" fill="#00AED9" x="0" y="0" width="160" height="160"></rect>
                    <g id="ODS/Objetivos/06" transform="translate(12.000000, 12.000000)" fill="#FFFFFE">
                        <path d="M75.6228571,65.0000584 C74.2939683,64.2972263 72.6184127,64.550365 71.0006349,65.3375766 C64.9257143,68.2988029 60.7904762,69.3639708 54.4019048,66.9576642 C50.3739683,65.4428029 46.6101587,62.2701314 42.1612698,64.201927 C39.2063492,65.4795328 36.4577778,66.6985693 33.1149206,66.6677956 L31.191746,54.7762336 L77.0095238,54.7762336 L75.6228571,65.0000584 Z M60.0888889,100.311416 C60.0888889,100.311416 57.8685714,103.060204 54.2533333,102.762394 C50.6215873,103.060204 48.4012698,100.311416 48.4012698,100.311416 C44.7365079,95.9048175 46.0406349,90.4211387 47.32,87.5879708 C48.104127,85.8130219 53.7415873,75.6348613 54.2285714,74.7692263 L54.2285714,74.7007299 L54.2533333,74.7334891 L54.2698413,74.7007299 L54.2698413,74.7692263 C54.7403175,75.6348613 60.3860317,85.8130219 61.1701587,87.5879708 C62.4495238,90.4211387 63.7536508,95.9048175 60.0888889,100.311416 Z M79.0152381,52.4116204 C78.8996825,52.2617226 78.7428571,52.1793285 78.5695238,52.1793285 L29.6152381,52.1793285 C29.4419048,52.1793285 29.2850794,52.2617226 29.1695238,52.4116204 C29.0622222,52.5764088 29.0209524,52.7789197 29.0539683,52.9685255 L37.2749206,112.800584 C37.3244444,113.132146 37.5638095,113.377343 37.8361905,113.377343 L47.9390476,113.377343 L48.624127,123.122686 L44.3815873,123.128642 L54.2615873,135.016234 L64.1746032,123.101839 L59.9238095,123.106803 L60.6171429,113.377343 L70.8850794,113.377343 C71.1657143,113.377343 71.4050794,113.132146 71.4463492,112.790657 L79.1473016,52.9685255 C79.1720635,52.7630365 79.1225397,52.5674745 79.0152381,52.4116204 Z" id="Fill-700"></path>
                        <path d="M4.97714286,19.7805547 C5.05968254,17.9480292 5.6952381,16.7895474 7.13968254,16.7895474 C8.70793651,16.7895474 9.31047619,17.9480292 9.31047619,20.0724088 L9.31047619,25.7685255 C9.31047619,27.8422774 8.66666667,29.0503942 7.10666667,29.0503942 C5.57968254,29.0503942 4.97714286,27.7956204 4.97714286,25.7685255 L4.97714286,19.7805547 Z M7.10666667,33.5393869 C11.96,33.5393869 13.8419048,30.3518248 13.8419048,25.2840876 L13.8419048,20.4565839 C13.8419048,15.0989781 12.0838095,12.3968467 8.79047619,12.3968467 C6.85904762,12.3968467 5.6952381,13.4600292 5.0184127,15.0523212 L4.97714286,15.0523212 L4.97714286,8.00414599 C4.97714286,6.02370803 5.49714286,4.6249927 7.13968254,4.6249927 C8.79047619,4.6249927 9.26920635,5.78545985 9.26920635,7.81156204 L9.26920635,9.98359124 L13.4457143,9.98359124 L13.4457143,8.24636496 C13.4457143,3.41786861 12.1168254,0.0407007299 7.06539683,0.0407007299 C2.24507937,0.0407007299 0.437460317,3.75637956 0.437460317,8.87275912 L0.437460317,24.8006423 C0.437460317,29.870365 2.28634921,33.5393869 7.10666667,33.5393869 Z" id="Fill-779"></path>
                        <path d="M30.0196825,9.91310949 L31.5549206,9.91310949 L30.7955556,4.39468613 L30.7790476,4.39468613 L30.0196825,9.91310949 Z M27.6095238,14.2750365 L29.7638095,0.519182482 L31.9593651,0.519182482 L34.1384127,14.2750365 L32.1657143,14.2750365 L31.8107937,11.7595328 L29.7638095,11.7595328 L29.4253968,14.2750365 L27.6095238,14.2750365 Z" id="Fill-860"></path>
                        <path d="M37.5720635,6.9300438 L40.304127,6.9300438 L40.304127,14.2750365 L38.9257143,14.2750365 L38.9257143,12.774073 C38.6698413,13.8084672 38.1333333,14.4368467 37.0850794,14.4368467 C35.4342857,14.4368467 34.6749206,12.8554745 34.6749206,10.724146 L34.6749206,4.07007299 C34.6749206,1.91988321 35.5333333,0.356379562 37.5555556,0.356379562 C39.6850794,0.356379562 40.304127,1.77693431 40.304127,3.8060146 L40.304127,5.02306569 L38.5542857,5.02306569 L38.5542857,3.62335766 C38.5542857,2.77162044 38.2819048,2.28420438 37.5885714,2.28420438 C36.8952381,2.28420438 36.5980952,2.87287591 36.5980952,3.70475912 L36.5980952,11.0894599 C36.5980952,11.9213431 36.8787302,12.5100146 37.5390476,12.5100146 C38.1663492,12.5100146 38.488254,12.084146 38.488254,11.1907153 L38.488254,8.75562044 L37.5720635,8.75562044 L37.5720635,6.9300438" id="Fill-861"></path>
                        <path d="M46.9815873,0.519182482 L46.9815873,10.9276496 C46.9815873,13.0579854 46.2222222,14.4368467 44.2660317,14.4368467 C42.2438095,14.4368467 41.4019048,13.0579854 41.4019048,10.9276496 L41.4019048,0.519182482 L43.3250794,0.519182482 L43.3250794,11.1500146 C43.3250794,11.9620438 43.5892063,12.5100146 44.2660317,12.5100146 C44.9428571,12.5100146 45.2152381,11.9620438 45.2152381,11.1500146 L45.2152381,0.519182482 L46.9815873,0.519182482" id="Fill-862"></path>
                        <path d="M49.928254,9.91310949 L51.4634921,9.91310949 L50.704127,4.39468613 L50.687619,4.39468613 L49.928254,9.91310949 Z M47.5180952,14.2750365 L49.6806349,0.519182482 L51.8679365,0.519182482 L54.0469841,14.2750365 L52.0742857,14.2750365 L51.7193651,11.7595328 L49.6806349,11.7595328 L49.3422222,14.2750365 L47.5180952,14.2750365 Z" id="Fill-863"></path>
                        <polyline id="Fill-864" points="56.6057143 0.519182482 58.5288889 0.519182482 58.5288889 12.3879124 60.8234921 12.3879124 60.8234921 14.2750365 56.6057143 14.2750365 56.6057143 0.519182482"></polyline>
                        <polygon id="Fill-865" points="61.6984127 14.2750365 63.6215873 14.2750365 63.6215873 0.519182482 61.6984127 0.519182482"></polygon>
                        <polyline id="Fill-866" points="70.0266667 5.34767883 69.9771429 5.34767883 68.6812698 14.2750365 67.7898413 14.2750365 66.3536508 5.34767883 66.3206349 5.34767883 66.3206349 14.2750365 64.735873 14.2750365 64.735873 0.519182482 66.9726984 0.519182482 68.2273016 8.27018978 68.2438095 8.27018978 69.3580952 0.519182482 71.7847619 0.519182482 71.7847619 14.2750365 70.0266667 14.2750365 70.0266667 5.34767883"></polyline>
                        <path d="M74.7974603,2.40630657 L74.7974603,7.82347445 L75.5073016,7.82347445 C76.167619,7.82347445 76.448254,7.43731387 76.448254,6.68683212 L76.448254,3.52210219 C76.448254,2.77162044 76.167619,2.40630657 75.5073016,2.40630657 L74.7974603,2.40630657 Z M72.8742857,0.519182482 L75.7219048,0.519182482 C77.6615873,0.519182482 78.3714286,1.67567883 78.3714286,3.60251095 L78.3714286,6.50417518 C78.3714286,8.432 77.6615873,9.60934307 75.7219048,9.60934307 L74.7974603,9.60934307 L74.7974603,14.2750365 L72.8742857,14.2750365 L72.8742857,0.519182482 Z" id="Fill-867"></path>
                        <polygon id="Fill-868" points="79.3619048 14.2750365 81.2850794 14.2750365 81.2850794 0.519182482 79.3619048 0.519182482"></polygon>
                        <path d="M84.504127,9.91310949 L86.047619,9.91310949 L85.288254,4.39468613 L85.271746,4.39468613 L84.504127,9.91310949 Z M82.0939683,14.2750365 L84.2565079,0.519182482 L86.4520635,0.519182482 L88.6228571,14.2750365 L86.6501587,14.2750365 L86.2952381,11.7595328 L84.2565079,11.7595328 L83.9180952,14.2750365 L82.0939683,14.2750365 Z" id="Fill-869"></path>
                        <polyline id="Fill-870" points="31.6539683 28.3038832 31.6539683 33.5383942 29.7307937 33.5383942 29.7307937 28.3038832 27.5930159 19.7835328 29.5987302 19.7835328 30.7625397 24.9971971 30.7790476 24.9971971 31.9428571 19.7835328 33.7834921 19.7835328 31.6539683 28.3038832"></polyline>
                        <path d="M36.2266667,30.5761752 L36.2266667,28.7297518 L38.0095238,28.7297518 L38.0095238,30.6168759 C38.0095238,31.3882044 38.2984127,31.833927 38.9587302,31.833927 C39.5612698,31.833927 39.8336508,31.3475036 39.8336508,30.6168759 L39.8336508,30.0897518 C39.8336508,29.2975766 39.5612698,28.8111533 38.9752381,28.142073 L37.8444444,26.782073 C36.7466667,25.4836204 36.2431746,24.692438 36.2431746,23.110073 L36.2431746,22.6435036 C36.2431746,20.9390365 37.0685714,19.6197372 38.9422222,19.6197372 C40.8653968,19.6197372 41.6247619,20.7563796 41.6247619,22.7447591 L41.6247619,23.8605547 L39.8666667,23.8605547 L39.8666667,22.6633577 C39.8666667,21.8721752 39.5612698,21.4870073 38.9587302,21.4870073 C38.4139683,21.4870073 38.0425397,21.8523212 38.0425397,22.6226569 L38.0425397,22.907562 C38.0425397,23.6788905 38.3974603,24.1246131 38.9587302,24.7738394 L40.1885714,26.2350949 C41.2368254,27.5127007 41.7403175,28.2840292 41.7403175,29.8048467 L41.7403175,30.4749197 C41.7403175,32.3610511 40.8984127,33.7002044 38.9422222,33.7002044 C36.9860317,33.7002044 36.2266667,32.3818978 36.2266667,30.5761752" id="Fill-871"></path>
                        <path d="M44.6869841,29.1764672 L46.2222222,29.1764672 L45.4628571,23.6580438 L45.4463492,23.6580438 L44.6869841,29.1764672 Z M42.2768254,33.5383942 L44.4311111,19.7835328 L46.6266667,19.7835328 L48.8057143,33.5383942 L46.8330159,33.5383942 L46.4780952,31.0228905 L44.4311111,31.0228905 L44.1009524,33.5383942 L42.2768254,33.5383942 Z" id="Fill-872"></path>
                        <polyline id="Fill-873" points="51.215873 24.8959416 51.215873 33.5383942 49.5898413 33.5383942 49.5898413 19.7835328 51.48 19.7835328 53.56 27.6755036 53.56 19.7835328 55.1612698 19.7835328 55.1612698 33.5383942 53.4692063 33.5383942 51.215873 24.8959416"></polyline>
                        <polyline id="Fill-874" points="56.2507937 19.7835328 60.84 19.7835328 60.84 21.6696642 58.1739683 21.6696642 58.1739683 25.6057226 60.0806349 25.6057226 60.0806349 27.472 58.1739683 27.472 58.1739683 31.6512701 60.84 31.6512701 60.84 33.5383942 56.2507937 33.5383942 56.2507937 19.7835328"></polyline>
                        <path d="M63.9765079,29.1764672 L65.511746,29.1764672 L64.752381,23.6580438 L64.735873,23.6580438 L63.9765079,29.1764672 Z M61.5663492,33.5383942 L63.7206349,19.7835328 L65.9161905,19.7835328 L68.0952381,33.5383942 L66.1142857,33.5383942 L65.7593651,31.0228905 L63.7206349,31.0228905 L63.3822222,33.5383942 L61.5663492,33.5383942 Z" id="Fill-875"></path>
                        <polyline id="Fill-876" points="74.1784127 24.6110365 74.1288889 24.6110365 72.8247619 33.5383942 71.9333333 33.5383942 70.4971429 24.6110365 70.464127 24.6110365 70.464127 33.5383942 68.8793651 33.5383942 68.8793651 19.7835328 71.1244444 19.7835328 72.3707937 27.5335474 72.3873016 27.5335474 73.5015873 19.7835328 75.928254 19.7835328 75.928254 33.5383942 74.1784127 33.5383942 74.1784127 24.6110365"></polyline>
                        <polygon id="Fill-877" points="77.0177778 33.5383942 78.9409524 33.5383942 78.9409524 19.7835328 77.0177778 19.7835328"></polygon>
                        <polyline id="Fill-878" points="80.0552381 19.7835328 84.6444444 19.7835328 84.6444444 21.6696642 81.9784127 21.6696642 81.9784127 25.6057226 83.8850794 25.6057226 83.8850794 27.472 81.9784127 27.472 81.9784127 31.6512701 84.6444444 31.6512701 84.6444444 33.5383942 80.0552381 33.5383942 80.0552381 19.7835328"></polyline>
                        <polyline id="Fill-879" points="87.2939683 24.8959416 87.2939683 33.5383942 85.6679365 33.5383942 85.6679365 19.7835328 87.5580952 19.7835328 89.6380952 27.6755036 89.6380952 19.7835328 91.2393651 19.7835328 91.2393651 33.5383942 89.5473016 33.5383942 87.2939683 24.8959416"></polyline>
                        <polyline id="Fill-880" points="92.1142857 19.7835328 97.2234921 19.7835328 97.2234921 21.6696642 95.6387302 21.6696642 95.6387302 33.5383942 93.6990476 33.5383942 93.6990476 21.6696642 92.1142857 21.6696642 92.1142857 19.7835328"></polyline>
                        <path d="M101.754921,30.3528175 L101.754921,22.9681168 C101.754921,22.1362336 101.449524,21.547562 100.764444,21.547562 C100.087619,21.547562 99.7822222,22.1362336 99.7822222,22.9681168 L99.7822222,30.3528175 C99.7822222,31.1847007 100.087619,31.7733723 100.764444,31.7733723 C101.449524,31.7733723 101.754921,31.1847007 101.754921,30.3528175 Z M97.8590476,29.9875036 L97.8590476,23.3334307 C97.8590476,21.1832409 98.7339683,19.6197372 100.764444,19.6197372 C102.803175,19.6197372 103.678095,21.1832409 103.678095,23.3334307 L103.678095,29.9875036 C103.678095,32.1188321 102.803175,33.7002044 100.764444,33.7002044 C98.7339683,33.7002044 97.8590476,32.1188321 97.8590476,29.9875036 Z" id="Fill-881"></path>
                    </g>
                </g>
            </g>
        </g>
    </g>
</svg>